<svg id="Layer_1" data-name="Layer 1" xmlns="http://www.w3.org/2000/svg" viewBox="0 0 90.67 31.13"><defs><style>.cls-1{fill:none;stroke:#3b97d3;stroke-miterlimit:10;stroke-width:0.52px;stroke-dasharray:1.03;}.cls-2{fill:#fff;}.cls-3{fill:#3b97d3;}</style></defs><title>recast</title><path class="cls-1" d="M23.26,21.66c-2.07,2.07-10.59-.2-11.33-3s5.39-8.71,8.3-8.3S25.34,19.59,23.26,21.66Z"/><path class="cls-2" d="M19,14.92c0,2.93-7.63,7.35-10.16,5.87s-2.34-10,0-11.73S19,12,19,14.92Z"/><path class="cls-3" d="M19,14.92c0-1-.94-2.24-2.26-3.34-2.66,1.81-5.31,5.12-4.81,7a3.29,3.29,0,0,0,1.36,1.67C16.1,19.09,19,16.73,19,14.92Z"/><path class="cls-2" d="M32.12,13.33a3.6,3.6,0,0,1,3.43-2v2a3,3,0,0,0-3.43,2.76v5.18H30V11.35h2.14v2Z"/><path class="cls-3" d="M56.44,12.9l-1.17,1.38a3.74,3.74,0,0,0-2.83-1.12,2.93,2.93,0,0,0-2.94,3.17,2.93,2.93,0,0,0,2.94,3.17,3.69,3.69,0,0,0,2.93-1.19l1.19,1.19a5,5,0,0,1-4.21,1.84,4.77,4.77,0,0,1-5-5,4.79,4.79,0,0,1,5-5A5.23,5.23,0,0,1,56.44,12.9Z"/><path class="cls-3" d="M64.32,20.06A4,4,0,0,1,61,21.36c-2.14,0-3.48-1.32-3.48-3.07s1.36-3,3.75-3h3V15c0-1.25-.8-2-2.37-2A5.23,5.23,0,0,0,59,14l-0.88-1.49a7.26,7.26,0,0,1,4.27-1.25c2.55,0,4,1.3,4,3.48l0,6.5H64.32V20.06Zm0-2.27V16.87H61.62c-1.4,0-2,.37-2,1.32s0.73,1.47,1.92,1.47C63,19.67,64.19,18.86,64.3,17.78Z"/><path class="cls-3" d="M75.73,12.27l-0.78,1.58A5.83,5.83,0,0,0,72.09,13c-0.84,0-1.45.28-1.45,1,0,1.83,5.27.84,5.25,4.43,0,2-1.81,2.94-3.8,2.94a6.13,6.13,0,0,1-4-1.38l0.76-1.53a5.4,5.4,0,0,0,3.32,1.23c0.91,0,1.62-.32,1.62-1.06,0-2-5.22-.89-5.2-4.47,0-2,1.75-2.87,3.65-2.87A6.27,6.27,0,0,1,75.73,12.27Z"/><path class="cls-3" d="M83.67,20.63a4.76,4.76,0,0,1-2.44.73,2.61,2.61,0,0,1-2.78-2.89V13.33h-1.4v-1.6h1.4V9h2.12v2.72H83.5v1.6H80.57v4.75c0,1,.39,1.34,1.06,1.34A3.46,3.46,0,0,0,83.13,19Z"/><path class="cls-2" d="M43.86,18.92a3.9,3.9,0,0,1-2.24.69,3,3,0,0,1-3.07-2.48H46c0.26-3.58-1.16-5.85-4.64-5.85a4.81,4.81,0,0,0-5,5,4.77,4.77,0,0,0,5.07,5,6,6,0,0,0,2.41-.48V18.92ZM41.42,13a2.55,2.55,0,0,1,2.76,2.57H38.51A2.82,2.82,0,0,1,41.42,13Z"/><polygon class="cls-2" points="46.07 18.48 44.06 21.96 42.05 18.48 46.07 18.48"/></svg>